<svg width="1200" height="660" viewBox="0 0 1200 660" fill="none" xmlns="http://www.w3.org/2000/svg">
  <rect width="1200" height="660" fill="#F3F6FA"/>
  <rect x="30" y="30" width="1140" height="600" rx="24" fill="#FFFFFF" stroke="#DDE5EF" stroke-width="2"/>
  <rect x="70" y="70" width="1060" height="74" rx="14" fill="#F7FAFD" stroke="#E4ECF4"/>
  <rect x="92" y="90" width="188" height="34" rx="9" fill="#EAF0F7"/>
  <circle cx="318" cy="107" r="8" fill="#CBD7E6"/>
  <circle cx="346" cy="107" r="8" fill="#CBD7E6"/>
  <circle cx="374" cy="107" r="8" fill="#CBD7E6"/>
  <rect x="981" y="88" width="124" height="38" rx="12" fill="#EFF3F9" stroke="#D8E2EE"/>
  <text x="1043" y="113" text-anchor="middle" font-size="13" fill="#4E6078" font-family="Inter, Arial, sans-serif">Review</text>

  <rect x="70" y="172" width="245" height="100" rx="14" fill="#FFFFFF" stroke="#E4EBF5"/>
  <rect x="335" y="172" width="245" height="100" rx="14" fill="#FFFFFF" stroke="#E4EBF5"/>
  <rect x="600" y="172" width="245" height="100" rx="14" fill="#FFFFFF" stroke="#E4EBF5"/>
  <rect x="865" y="172" width="245" height="100" rx="14" fill="#FFFFFF" stroke="#E4EBF5"/>

  <text x="94" y="199" font-size="12" fill="#62748C" font-family="Inter, Arial, sans-serif">Weekly activity</text>
  <text x="359" y="199" font-size="12" fill="#62748C" font-family="Inter, Arial, sans-serif">Completion</text>
  <text x="624" y="199" font-size="12" fill="#62748C" font-family="Inter, Arial, sans-serif">Health score</text>
  <text x="889" y="199" font-size="12" fill="#62748C" font-family="Inter, Arial, sans-serif">Team updates</text>
  <text x="94" y="241" font-size="28" fill="#1C2A3F" font-family="Inter, Arial, sans-serif">842</text>
  <text x="359" y="241" font-size="28" fill="#1C2A3F" font-family="Inter, Arial, sans-serif">74%</text>
  <text x="624" y="241" font-size="28" fill="#1C2A3F" font-family="Inter, Arial, sans-serif">7.1</text>
  <text x="889" y="241" font-size="28" fill="#1C2A3F" font-family="Inter, Arial, sans-serif">28</text>

  <rect x="70" y="292" width="516" height="302" rx="14" fill="#FFFFFF" stroke="#E4EBF5"/>
  <rect x="70" y="292" width="516" height="46" rx="14" fill="#F9FBFE"/>
  <text x="94" y="320" font-size="13" fill="#556981" font-family="Inter, Arial, sans-serif">Performance summary</text>
  <polyline points="100,523 168,501 236,512 304,460 372,472 440,430 508,442 556,410" stroke="#7A98BC" stroke-width="3" fill="none"/>
  <line x1="100" y1="544" x2="556" y2="544" stroke="#DCE5F0"/>
  <line x1="100" y1="470" x2="556" y2="470" stroke="#DCE5F0"/>
  <line x1="100" y1="396" x2="556" y2="396" stroke="#DCE5F0"/>

  <rect x="604" y="292" width="250" height="302" rx="14" fill="#FFFFFF" stroke="#E4EBF5"/>
  <rect x="604" y="292" width="250" height="46" rx="14" fill="#F9FBFE"/>
  <text x="626" y="320" font-size="13" fill="#556981" font-family="Inter, Arial, sans-serif">Suggested actions</text>
  <rect x="626" y="354" width="206" height="58" rx="10" fill="#F7FAFD" stroke="#E4EBF5"/>
  <rect x="626" y="424" width="206" height="58" rx="10" fill="#F7FAFD" stroke="#E4EBF5"/>
  <rect x="626" y="494" width="206" height="58" rx="10" fill="#F7FAFD" stroke="#E4EBF5"/>
  <text x="642" y="387" font-size="12" fill="#445770" font-family="Inter, Arial, sans-serif">Review pending approvals</text>
  <text x="642" y="457" font-size="12" fill="#445770" font-family="Inter, Arial, sans-serif">Check engagement trend</text>
  <text x="642" y="527" font-size="12" fill="#445770" font-family="Inter, Arial, sans-serif">Explore monthly insights</text>

  <rect x="872" y="292" width="238" height="302" rx="14" fill="#FFFFFF" stroke="#E4EBF5"/>
  <rect x="872" y="292" width="238" height="46" rx="14" fill="#F9FBFE"/>
  <text x="894" y="320" font-size="13" fill="#556981" font-family="Inter, Arial, sans-serif">System notes</text>
  <rect x="894" y="354" width="194" height="84" rx="10" fill="#F7FAFD" stroke="#E4EBF5"/>
  <rect x="894" y="446" width="194" height="64" rx="10" fill="#F7FAFD" stroke="#E4EBF5"/>
  <text x="908" y="384" font-size="12" fill="#445770" font-family="Inter, Arial, sans-serif">Most teams improved</text>
  <text x="908" y="402" font-size="12" fill="#445770" font-family="Inter, Arial, sans-serif">this week after training.</text>
  <text x="908" y="475" font-size="12" fill="#445770" font-family="Inter, Arial, sans-serif">Action needed:</text>
  <text x="908" y="493" font-size="11" fill="#6E8198" font-family="Inter, Arial, sans-serif">Update plan limits in billing settings.</text>
</svg>
