<svg width="1200" height="660" viewBox="0 0 1200 660" fill="none" xmlns="http://www.w3.org/2000/svg">
  <rect width="1200" height="660" fill="#F4F7FB"/>
  <rect x="30" y="30" width="1140" height="600" rx="24" fill="#FFFFFF" stroke="#DEE6EF" stroke-width="2"/>

  <rect x="70" y="74" width="1060" height="78" rx="14" fill="#F8FBFE" stroke="#E4ECF5"/>
  <text x="94" y="118" font-size="15" fill="#1D2C43" font-family="Inter, Arial, sans-serif">Workspace setup</text>
  <circle cx="424" cy="112" r="13" fill="#D7E2F0"/>
  <circle cx="502" cy="112" r="13" fill="#D7E2F0"/>
  <circle cx="580" cy="112" r="13" fill="#D7E2F0"/>
  <line x1="437" y1="112" x2="489" y2="112" stroke="#CFDBEA" stroke-width="3"/>
  <line x1="515" y1="112" x2="567" y2="112" stroke="#CFDBEA" stroke-width="3"/>
  <text x="424" y="117" text-anchor="middle" font-size="11" fill="#52637B" font-family="Inter, Arial, sans-serif">1</text>
  <text x="502" y="117" text-anchor="middle" font-size="11" fill="#52637B" font-family="Inter, Arial, sans-serif">2</text>
  <text x="580" y="117" text-anchor="middle" font-size="11" fill="#52637B" font-family="Inter, Arial, sans-serif">3</text>
  <text x="664" y="117" font-size="12" fill="#60748D" font-family="Inter, Arial, sans-serif">Estimated: 3 min</text>

  <rect x="70" y="182" width="324" height="380" rx="16" fill="#FFFFFF" stroke="#E4EBF5"/>
  <rect x="70" y="182" width="324" height="52" rx="16" fill="#F9FBFE"/>
  <text x="94" y="214" font-size="13" fill="#556981" font-family="Inter, Arial, sans-serif">Step 1: Connect workspace</text>
  <rect x="94" y="260" width="276" height="48" rx="10" fill="#F6F9FD" stroke="#E2EAF4"/>
  <rect x="94" y="320" width="276" height="48" rx="10" fill="#F6F9FD" stroke="#E2EAF4"/>
  <rect x="94" y="380" width="276" height="48" rx="10" fill="#F6F9FD" stroke="#E2EAF4"/>
  <rect x="94" y="454" width="156" height="40" rx="12" fill="#EEF3F9" stroke="#D7E2EE"/>
  <text x="172" y="479" text-anchor="middle" font-size="12" fill="#4C6078" font-family="Inter, Arial, sans-serif">Continue</text>
  <text x="94" y="527" font-size="11" fill="#7B8EA5" font-family="Inter, Arial, sans-serif">No save indicator or resume checkpoint shown.</text>

  <rect x="418" y="182" width="324" height="380" rx="16" fill="#FFFFFF" stroke="#E4EBF5"/>
  <rect x="418" y="182" width="324" height="52" rx="16" fill="#F9FBFE"/>
  <text x="442" y="214" font-size="13" fill="#556981" font-family="Inter, Arial, sans-serif">Step 2: Invite teammates</text>
  <rect x="442" y="260" width="276" height="66" rx="10" fill="#F6F9FD" stroke="#E2EAF4"/>
  <rect x="442" y="338" width="276" height="66" rx="10" fill="#F6F9FD" stroke="#E2EAF4"/>
  <rect x="442" y="416" width="276" height="66" rx="10" fill="#F6F9FD" stroke="#E2EAF4"/>
  <text x="456" y="294" font-size="12" fill="#4E6078" font-family="Inter, Arial, sans-serif">Invite by email</text>
  <text x="456" y="372" font-size="12" fill="#4E6078" font-family="Inter, Arial, sans-serif">Import from contacts</text>
  <text x="456" y="450" font-size="12" fill="#4E6078" font-family="Inter, Arial, sans-serif">Send invite links</text>
  <text x="442" y="527" font-size="11" fill="#7B8EA5" font-family="Inter, Arial, sans-serif">Interrupted users are told to start over.</text>

  <rect x="766" y="182" width="344" height="380" rx="16" fill="#FFFFFF" stroke="#E4EBF5"/>
  <rect x="766" y="182" width="344" height="52" rx="16" fill="#F9FBFE"/>
  <text x="790" y="214" font-size="13" fill="#556981" font-family="Inter, Arial, sans-serif">Step 3: Completion</text>
  <rect x="792" y="260" width="292" height="172" rx="12" fill="#F6F9FD" stroke="#E2EAF4"/>
  <circle cx="840" cy="312" r="18" fill="#D6E4F1"/>
  <text x="840" y="317" text-anchor="middle" font-size="14" fill="#4C6078" font-family="Inter, Arial, sans-serif">✓</text>
  <text x="872" y="304" font-size="14" fill="#1F3048" font-family="Inter, Arial, sans-serif">Setup complete</text>
  <text x="872" y="326" font-size="12" fill="#60748D" font-family="Inter, Arial, sans-serif">Your workspace is ready.</text>
  <rect x="872" y="354" width="98" height="34" rx="10" fill="#EEF3F9" stroke="#D7E2EE"/>
  <text x="921" y="375" text-anchor="middle" font-size="12" fill="#4C6078" font-family="Inter, Arial, sans-serif">Close</text>

  <rect x="792" y="446" width="292" height="84" rx="12" fill="#F6F9FD" stroke="#E2EAF4"/>
  <text x="810" y="474" font-size="12" fill="#4E6078" font-family="Inter, Arial, sans-serif">Need to continue later?</text>
  <text x="810" y="495" font-size="11" fill="#7B8EA5" font-family="Inter, Arial, sans-serif">Go to Settings and repeat this flow.</text>
  <text x="810" y="527" font-size="11" fill="#7B8EA5" font-family="Inter, Arial, sans-serif">No clear post-completion or error states shown.</text>
</svg>
